HIERARCHY
ROOT joint_Root
{
	OFFSET 0.0 0.0 0.0
	CHANNELS 6 Xposition Yposition Zposition Zrotation Xrotation Yrotation 
	JOINT Hips
	{
		OFFSET 4.5925 91.4895 -427.239
		CHANNELS 6 Xposition Yposition Zposition Zrotation Xrotation Yrotation 
		JOINT Spine
		{
			OFFSET 15.7357 0.0 0.0
			CHANNELS 6 Xposition Yposition Zposition Zrotation Xrotation Yrotation 
			JOINT Chest
			{
				OFFSET 8.98455 -0.406207 0.0
				CHANNELS 6 Xposition Yposition Zposition Zrotation Xrotation Yrotation 
				JOINT Neck
				{
					OFFSET 16.3773 0.0 0.0
					CHANNELS 6 Xposition Yposition Zposition Zrotation Xrotation Yrotation 
					JOINT Head
					{
						OFFSET 6.45672 0.0 0.0
						CHANNELS 6 Xposition Yposition Zposition Zrotation Xrotation Yrotation 
						End Site
						{
							OFFSET 0.0 0.0 0.0
						}
					}
				}
				JOINT Shoulder_L
				{
					OFFSET 12.9942 -0.242716 4.98039
					CHANNELS 6 Xposition Yposition Zposition Zrotation Xrotation Yrotation 
					JOINT UpperArm_L
					{
						OFFSET 5.34809 0.0 0.0
						CHANNELS 6 Xposition Yposition Zposition Zrotation Xrotation Yrotation 
						JOINT LowerArm_L
						{
							OFFSET 24.3286 1.87007e-05 0.0
							CHANNELS 6 Xposition Yposition Zposition Zrotation Xrotation Yrotation 
							JOINT Hand_L
							{
								OFFSET 22.2916 0.0 0.0
								CHANNELS 6 Xposition Yposition Zposition Zrotation Xrotation Yrotation 
								End Site
								{
									OFFSET 0.0 0.0 0.0
								}
							}
						}
					}
				}
				JOINT Shoulder_R
				{
					OFFSET 12.9945 -0.242716 -4.98039
					CHANNELS 6 Xposition Yposition Zposition Zrotation Xrotation Yrotation 
					JOINT UpperArm_R
					{
						OFFSET -5.34813 0.0 0.0
						CHANNELS 6 Xposition Yposition Zposition Zrotation Xrotation Yrotation 
						JOINT LowerArm_R
						{
							OFFSET -24.3289 0.000322201 0.0
							CHANNELS 6 Xposition Yposition Zposition Zrotation Xrotation Yrotation 
							JOINT Hand_R
							{
								OFFSET -22.2915 -0.000108084 0.0
								CHANNELS 6 Xposition Yposition Zposition Zrotation Xrotation Yrotation 
								End Site
								{
									OFFSET 0.0 0.0 0.0
								}
							}
						}
					}
				}
			}
		}
		JOINT UpperLeg_L
		{
			OFFSET -2.19248 -6.46944 0.0
			CHANNELS 6 Xposition Yposition Zposition Zrotation Xrotation Yrotation 
			JOINT LowerLeg_L
			{
				OFFSET 39.0811 0.0 -1.23785e-05
				CHANNELS 6 Xposition Yposition Zposition Zrotation Xrotation Yrotation 
				JOINT Foot_L
				{
					OFFSET 40.9854 0.0 -1.26872e-05
					CHANNELS 6 Xposition Yposition Zposition Zrotation Xrotation Yrotation 
					JOINT Toes_L
					{
						OFFSET 11.7543 0.0 0.0
						CHANNELS 6 Xposition Yposition Zposition Zrotation Xrotation Yrotation 
						End Site
						{
							OFFSET 0.0 0.0 0.0
						}
					}
				}
			}
		}
		JOINT UpperLeg_R
		{
			OFFSET -2.19251 6.46944 0.0
			CHANNELS 6 Xposition Yposition Zposition Zrotation Xrotation Yrotation 
			JOINT LowerLeg_R
			{
				OFFSET -39.0811 -0.00228153 -0.0401928
				CHANNELS 6 Xposition Yposition Zposition Zrotation Xrotation Yrotation 
				JOINT Foot_R
				{
					OFFSET -40.9854 0.0 0.0
					CHANNELS 6 Xposition Yposition Zposition Zrotation Xrotation Yrotation 
					JOINT Toes_R
					{
						OFFSET -11.7543 0.0 0.0
						CHANNELS 6 Xposition Yposition Zposition Zrotation Xrotation Yrotation 
						End Site
						{
							OFFSET 0.0 0.0 0.0
						}
					}
				}
			}
		}
	}
}
MOTION
Frames:	4
Frame Time:	0.0333333
0.000000 0.000000 0.000000 0.000000 0.000000 -0.000000 156.147000 85.028700 -150.422000 87.334600 -0.597685 -2.638990 15.735700 0.000005 -0.000001 66.390100 83.035600 -63.651800 8.984550 -0.406207 -0.000000 5.157350 -5.629370 5.727610 16.377300 -0.000001 -0.000001 -2.371340 -0.684705 -0.498175 6.456720 -0.000001 -0.000000 -5.987320 2.723160 -1.026470 12.994200 -0.242716 4.980390 -89.787000 -0.675186 -72.486200 5.348090 -0.000007 -0.000001 -72.104800 32.061700 -9.685570 24.328600 0.000019 0.000005 -1.530560 -0.942867 -58.551700 22.291600 -0.000001 0.000005 7.245150 5.469080 -5.335110 12.994500 -0.242716 -4.980390 86.365500 12.701900 -73.887000 -5.348130 -0.000001 -0.000004 -56.183100 38.225600 -3.211010 -24.328900 0.000322 -0.000009 -15.594100 -2.506270 -81.104000 -22.291500 -0.000108 -0.000004 23.036900 5.629900 -13.353600 -2.192480 -6.469440 -0.000000 -167.763000 -2.534930 4.690040 39.081100 -0.000007 -0.000012 0.118865 -0.103282 49.011800 40.985400 -0.000006 -0.000013 -0.218539 9.059340 -43.737200 11.754300 -0.000000 0.000003 -0.211450 -0.663804 -45.115600 -2.192510 6.469440 -0.000001 -173.096000 12.001900 144.310000 -39.081100 -0.002282 -0.040193 0.140709 -0.099416 54.127800 -40.985400 0.000008 0.000006 10.269000 -2.485130 -70.952800 -11.754300 -0.000006 -0.000006 -0.006162 -0.072296 -19.515600
0.000000 0.000000 0.000000 0.000000 0.000000 -0.000000 155.654000 85.787800 -145.694000 87.739100 -1.066620 -1.178390 15.735700 0.000005 -0.000001 71.742800 82.911400 -68.904400 8.984550 -0.406207 -0.000000 5.828910 -4.478200 5.900980 16.377300 -0.000001 -0.000001 -2.517790 -0.905756 0.375092 6.456720 -0.000001 -0.000000 -4.310450 3.428980 -1.758970 12.994200 -0.242716 4.980390 -89.986400 -0.046533 -73.747300 5.348090 -0.000007 -0.000001 -72.280300 32.996000 -1.385890 24.328600 0.000019 0.000005 1.937110 1.763660 -47.704200 22.291600 -0.000001 0.000005 5.739680 5.489640 -6.122820 12.994500 -0.242716 -4.980390 87.064800 11.452500 -75.523200 -5.348130 -0.000001 -0.000004 -55.749700 40.143200 -16.672900 -24.328900 0.000322 -0.000009 -11.519900 -0.708684 -86.543300 -22.291500 -0.000108 -0.000004 21.680600 5.629700 -13.314600 -2.192480 -6.469440 -0.000000 -170.662000 -0.093913 -2.051990 39.081100 -0.000007 -0.000012 0.127099 -0.072240 60.385600 40.985400 -0.000006 -0.000013 -0.112967 -0.645097 -32.193300 11.754300 -0.000000 0.000003 -0.006730 -0.077338 -19.725000 -2.192510 6.469440 -0.000001 -174.327000 12.474200 150.377000 -39.081100 -0.002282 -0.040193 0.127483 -0.094264 52.812800 -40.985400 0.000008 0.000006 10.090100 -2.012200 -73.906000 -11.754300 -0.000006 -0.000006 -0.005590 -0.067064 -19.302200
0.000000 0.000000 0.000000 0.000000 0.000000 -0.000000 155.463000 87.059500 -141.385000 88.221500 -2.346140 -0.519517 15.735700 0.000005 -0.000001 79.368200 82.854200 -76.893200 8.984550 -0.406207 -0.000000 6.347830 -2.659610 5.092800 16.377300 -0.000001 -0.000001 -2.752410 -1.454580 1.928860 6.456720 -0.000001 -0.000000 -4.400930 2.363520 -0.378814 12.994200 -0.242716 4.980390 -90.048500 0.156614 -72.735000 5.348090 -0.000007 -0.000001 -70.192900 37.876300 7.787490 24.328600 0.000019 0.000005 -0.060265 -0.037949 -52.571400 22.291600 -0.000001 0.000005 3.979010 5.508110 -6.870710 12.994500 -0.242716 -4.980390 87.825900 9.188640 -76.628100 -5.348130 -0.000001 -0.000004 -53.498700 41.226800 -30.672700 -24.328900 0.000322 -0.000009 -8.059750 0.317161 -92.249600 -22.291500 -0.000108 -0.000004 22.204500 5.632560 -13.530700 -2.192480 -6.469440 -0.000000 -173.860000 -0.144155 -9.425080 39.081100 -0.000007 -0.000012 0.042335 -0.014073 71.604800 40.985400 -0.000006 -0.000013 4.576140 -6.669500 -39.607900 11.754300 -0.000000 0.000003 -0.011341 -0.113411 -21.199300 -2.192510 6.469440 -0.000001 -175.772000 11.935200 156.534000 -39.081100 -0.002282 -0.040193 0.102554 -0.086591 48.912100 -40.985400 0.000008 0.000006 9.497720 -1.221180 -75.139000 -11.754300 -0.000006 -0.000006 -0.005356 -0.064871 -19.212800
0.000000 0.000000 0.000000 0.000000 0.000000 -0.000000 155.496000 88.676100 -137.120000 89.397100 -4.097480 -0.124176 15.735700 0.000005 -0.000001 90.865200 82.838600 -89.160600 8.984550 -0.406207 -0.000000 6.554440 0.197637 3.394150 16.377300 -0.000001 -0.000001 -2.255210 -2.309830 2.874540 6.456720 -0.000001 -0.000000 -5.342380 -0.736932 2.158350 12.994200 -0.242716 4.980390 -89.506400 -1.414510 -70.781400 5.348090 -0.000007 -0.000001 -70.251100 41.314400 15.157100 24.328600 0.000019 0.000005 -4.936470 -2.900050 -59.602500 22.291600 -0.000001 0.000005 0.987253 5.509770 -6.930470 12.994500 -0.242716 -4.980390 88.462300 6.624790 -76.901300 -5.348130 -0.000001 -0.000004 -51.802800 40.063400 -40.659600 -24.328900 0.000322 -0.000009 -8.203560 1.244670 -98.552800 -22.291500 -0.000108 -0.000004 22.644000 5.623560 -12.870500 -2.192480 -6.469440 -0.000000 -177.741000 -1.171260 -16.361000 39.081100 -0.000007 -0.000012 -0.031963 0.006924 77.789400 40.985400 -0.000006 -0.000013 7.312900 -8.526830 -45.144300 11.754300 -0.000000 0.000003 -0.009430 -0.099342 -20.623700 -2.192510 6.469440 -0.000001 -178.166000 11.903000 163.117000 -39.081100 -0.002282 -0.040193 0.077557 -0.079468 43.070100 -40.985400 0.000008 0.000006 8.992910 0.924508 -75.149100 -11.754300 -0.000006 -0.000006 -0.005759 -0.068634 -19.366200
